<?xml version="1.0" encoding="utf-8"?>
<svg version="1.1" id="Capa_1" x="0px" y="0px" viewBox="0 0 101 55" style="enable-background:new 0 0 295.13 295.13;" xmlns="http://www.w3.org/2000/svg">
  <defs>
    <radialGradient gradientUnits="userSpaceOnUse" cx="135.948" cy="66.428" r="79.294" id="gradient-0" gradientTransform="matrix(0.199279, 1.245322, -1.227635, 0.196449, 162.715485, -59.408054)">
      <stop offset="0" style="stop-color: rgb(255, 199, 120);"/>
      <stop offset="1" style="stop-color: rgb(188, 127, 41);"/>
    </radialGradient>
  </defs>
  <g id="hand-push" style="" transform="matrix(0.285881, 0, 0, 0.288069, 53.521637, -0.692086)">
    <g>
      <g>
        <g transform="matrix(0.5722, 0, 0, 0.5722, -105.686287, 47.097092)" style="">
          <path d="M 143.426 78.081 C 137.975 78.081 133.21 80.967 130.538 85.285 L 130.538 80.354 C 130.538 71.981 123.75 65.193 115.377 65.193 C 109.926 65.193 105.161 68.079 102.489 72.397 L 102.489 68.983 C 102.489 60.61 95.701 53.822 87.328 53.822 C 81.877 53.822 77.112 56.708 74.44 61.026 L 74.44 15.161 C 74.44 6.788 67.652 0 59.279 0 C 50.906 0 44.118 6.788 44.118 15.161 L 44.118 129.216 L 27.117 107.418 C 21.968 100.815 12.44 99.637 5.838 104.787 C -0.765 109.936 -1.942 119.464 3.207 126.066 L 50.872 187.18 C 58.048 197.876 70.248 204.931 84.067 204.931 L 113.744 204.931 C 137.976 204.931 158.588 185.296 158.588 160.087 C 158.588 153.284 158.588 99.378 158.588 93.241 C 158.587 84.869 151.799 78.081 143.426 78.081 Z" style="fill: url(#gradient-0);" transform="matrix(-1, 0, 0, -1, 158.588298, 204.931)"/>
          <path d="M 62.72 236.492 C 68.242 236.492 72.72 232.015 72.72 226.492 C 72.72 211.831 84.647 199.903 99.308 199.903 C 113.968 199.903 125.896 211.831 125.896 226.492 C 125.896 232.015 130.374 236.492 135.896 236.492 C 141.418 236.492 145.896 232.015 145.896 226.492 C 145.895 200.802 124.996 179.903 99.308 179.903 C 73.62 179.903 52.72 200.802 52.72 226.492 C 52.72 232.014 57.197 236.492 62.72 236.492 Z" style="fill: rgb(0, 147, 49);" id="lamp-push" transform="matrix(-1, 0, 0, -1, 198.615997, 416.395004)"/>
        </g>
        <text style="font-size: 31.4374px; line-height: 50.2999px;" x="-187.218" y="30.332" id="text-push-hand">ручной режим      нажат</text>
      </g>
    </g>
  </g>
</svg>